<svg width="154" height="157" viewBox="0 0 154 157" fill="none" xmlns="http://www.w3.org/2000/svg">
<g filter="url(#filter0_i_41_112)">
<path fill-rule="evenodd" clip-rule="evenodd" d="M24 0.562744C10.7452 0.562744 0 11.3079 0 24.5627V156.348H129.805C143.06 156.348 153.805 145.603 153.805 132.348V24.5627C153.805 11.3079 143.06 0.562744 129.805 0.562744H24ZM51.0354 58.4088C51.0354 68.7721 57.016 77.7245 65.6812 81.9363L53.1723 121.801L100.068 121.801L87.6239 82.1416C96.5219 78.0205 102.702 68.9437 102.702 58.4088C102.702 43.997 91.1362 32.314 76.8688 32.314C62.6014 32.314 51.0354 43.997 51.0354 58.4088Z" fill="#D9D9D9"/>
<path fill-rule="evenodd" clip-rule="evenodd" d="M24 0.562744C10.7452 0.562744 0 11.3079 0 24.5627V156.348H129.805C143.06 156.348 153.805 145.603 153.805 132.348V24.5627C153.805 11.3079 143.06 0.562744 129.805 0.562744H24ZM51.0354 58.4088C51.0354 68.7721 57.016 77.7245 65.6812 81.9363L53.1723 121.801L100.068 121.801L87.6239 82.1416C96.5219 78.0205 102.702 68.9437 102.702 58.4088C102.702 43.997 91.1362 32.314 76.8688 32.314C62.6014 32.314 51.0354 43.997 51.0354 58.4088Z" fill="url(#paint0_linear_41_112)"/>
</g>
<defs>
<filter id="filter0_i_41_112" x="0" y="0.562744" width="153.805" height="159.785" filterUnits="userSpaceOnUse" color-interpolation-filters="sRGB">
<feFlood flood-opacity="0" result="BackgroundImageFix"/>
<feBlend mode="normal" in="SourceGraphic" in2="BackgroundImageFix" result="shape"/>
<feColorMatrix in="SourceAlpha" type="matrix" values="0 0 0 0 0 0 0 0 0 0 0 0 0 0 0 0 0 0 127 0" result="hardAlpha"/>
<feOffset dy="4"/>
<feGaussianBlur stdDeviation="12"/>
<feComposite in2="hardAlpha" operator="arithmetic" k2="-1" k3="1"/>
<feColorMatrix type="matrix" values="0 0 0 0 0 0 0 0 0 0 0 0 0 0 0 0 0 0 0.15 0"/>
<feBlend mode="normal" in2="shape" result="effect1_innerShadow_41_112"/>
</filter>
<linearGradient id="paint0_linear_41_112" x1="106.277" y1="31.2578" x2="19.379" y2="119.065" gradientUnits="userSpaceOnUse">
<stop stop-color="#E0ADFF"/>
<stop offset="1" stop-color="#EE3636"/>
</linearGradient>
</defs>
</svg>
