<svg width="949" height="171" viewBox="0 0 949 171" fill="none" xmlns="http://www.w3.org/2000/svg">
<path d="M198.608 0H200.712V170.457H198.608V0Z" fill="#4D4C4D"/>
<path d="M531.58 43.0072C529.205 42.3796 526.695 42.052 524.13 42.052H472.637V128.719H494.741V63.9916H524.13C528.25 63.9916 531.58 67.3205 531.58 71.4413V128.719H553.519V71.4413C553.519 57.7699 544.187 46.2816 531.58 43.0072Z" fill="#4D4C4D"/>
<path d="M586.609 41.9705H564.506V128.8H586.609V82.9841C587.809 72.2328 596.896 63.9101 607.921 63.9101V41.9705C600.171 41.9705 592.912 43.9898 586.609 47.5646V41.9705Z" fill="#4D4C4D"/>
<path d="M658.807 106.807C646.936 106.807 637.331 97.2015 637.331 85.3584C637.331 73.488 646.936 63.8825 658.807 63.8825C670.65 63.8825 680.255 73.488 680.255 85.3584C680.255 97.2015 670.65 106.807 658.807 106.807ZM658.807 41.8884C634.793 41.8884 615.337 61.3445 615.337 85.3584C615.337 109.344 634.793 128.801 658.807 128.801C682.793 128.801 702.249 109.344 702.249 85.3584C702.249 61.3445 682.793 41.8884 658.807 41.8884Z" fill="#4D4C4D"/>
<path d="M754.074 106.807C742.205 106.807 732.6 97.2015 732.6 85.3584C732.6 73.488 742.205 63.8825 754.074 63.8825C765.919 63.8825 775.524 73.488 775.524 85.3584C775.524 97.2015 765.919 106.807 754.074 106.807ZM754.074 41.8884C730.062 41.8884 710.606 61.3445 710.606 85.3584C710.606 109.344 730.062 128.801 754.074 128.801C778.061 128.801 797.517 109.344 797.517 85.3584C797.517 61.3445 778.061 41.8884 754.074 41.8884Z" fill="#4D4C4D"/>
<path d="M926.245 43.0072C923.871 42.3796 921.361 42.052 918.796 42.052H808.498V128.719H830.601V71.4413C830.601 71.1136 830.601 70.8137 830.629 70.4861V63.9916H859.99C863.592 63.9916 866.594 66.5291 867.303 69.9129V128.719H889.407V63.9916H918.796C922.915 63.9916 926.245 67.3205 926.245 71.4413V128.719H948.185V71.4413C948.185 57.7699 938.852 46.2816 926.245 43.0072Z" fill="#4D4C4D"/>
<path d="M416.784 107.302C415.253 107.302 413.751 107.138 412.303 106.838C402.515 104.754 395.163 96.0072 395.163 85.517C395.163 85.1491 395.177 84.7812 395.19 84.4133C395.758 72.9149 405.208 63.7591 416.784 63.7591C428.386 63.7591 437.836 72.9149 438.405 84.4133C438.419 84.7812 438.432 85.1491 438.432 85.517C438.432 96.0072 431.08 104.754 421.278 106.838C419.83 107.138 418.327 107.302 416.784 107.302ZM438.716 47.356C432.272 43.6096 424.772 41.4568 416.784 41.4568C392.604 41.4568 373 61.1843 373 85.517C373 88.0782 373.217 90.5711 373.637 93.0103C374.462 97.9556 376.127 102.601 378.443 106.838C385.916 120.421 400.28 129.618 416.784 129.618C424.772 129.618 432.272 127.465 438.716 123.705V138.228C437.999 141.647 434.993 144.209 431.378 144.209H395.163V166.457H431.378C433.91 166.457 436.374 166.13 438.716 165.53C449.141 162.86 457.345 154.645 460.039 144.209C460.676 141.798 461 139.25 461 136.647V41.5388H438.716V47.356Z" fill="#4D4C4D"/>
<path d="M360.949 41.5925H338.635V129.247H360.949V41.5925Z" fill="#4D4C4D"/>
<path d="M360.949 4.92236H338.635V27.2354H360.949V4.92236Z" fill="#4D4C4D"/>
<path d="M291.439 131.457C283.781 131.457 276.963 130.121 270.983 127.45C265.004 124.779 260.284 121.146 256.822 116.551C253.36 111.849 251.42 106.614 251 100.844H277.592C277.907 103.942 279.323 106.453 281.841 108.377C284.358 110.3 287.453 111.262 291.124 111.262C294.481 111.262 297.051 110.621 298.834 109.338C300.723 107.949 301.667 106.186 301.667 104.049C301.667 101.485 300.355 99.6147 297.733 98.4394C295.11 97.1571 290.862 95.7681 284.988 94.2721C278.694 92.7762 273.449 91.2268 269.253 89.624C265.057 87.9144 261.438 85.2965 258.395 81.7704C255.353 78.1374 253.832 73.2756 253.832 67.185C253.832 62.0561 255.196 57.408 257.923 53.2408C260.756 48.9667 264.847 45.6008 270.197 43.1432C275.652 40.6856 282.103 39.4568 289.551 39.4568C300.565 39.4568 309.219 42.235 315.513 47.7913C321.912 53.3476 325.584 60.7204 326.528 69.9098H301.667C301.247 66.811 299.883 64.3534 297.576 62.5369C295.373 60.7204 292.435 59.8122 288.764 59.8122C285.617 59.8122 283.204 60.4533 281.526 61.7355C279.847 62.9109 279.008 64.5671 279.008 66.7042C279.008 69.2686 280.32 71.192 282.942 72.4742C285.669 73.7564 289.865 75.0387 295.53 76.3209C302.034 78.0305 307.331 79.7402 311.422 81.4498C315.513 83.0526 319.08 85.7239 322.122 89.4638C325.269 93.0967 326.895 98.012 327 104.209C327 109.445 325.531 114.147 322.594 118.314C319.762 122.374 315.618 125.58 310.164 127.931C304.814 130.281 298.572 131.457 291.439 131.457Z" fill="#4D4C4D"/>
<g filter="url(#filter0_i_91_348)">
<path fill-rule="evenodd" clip-rule="evenodd" d="M24 7.56274C10.7452 7.56274 0 18.3079 0 31.5627V163.348H129.805C143.06 163.348 153.805 152.603 153.805 139.348V31.5627C153.805 18.3079 143.06 7.56274 129.805 7.56274H24ZM51.0354 65.4088C51.0354 75.7721 57.016 84.7245 65.6812 88.9363L53.1723 128.801L100.068 128.801L87.6239 89.1416C96.5219 85.0205 102.702 75.9437 102.702 65.4088C102.702 50.997 91.1362 39.314 76.8688 39.314C62.6014 39.314 51.0354 50.997 51.0354 65.4088Z" fill="#D9D9D9"/>
<path fill-rule="evenodd" clip-rule="evenodd" d="M24 7.56274C10.7452 7.56274 0 18.3079 0 31.5627V163.348H129.805C143.06 163.348 153.805 152.603 153.805 139.348V31.5627C153.805 18.3079 143.06 7.56274 129.805 7.56274H24ZM51.0354 65.4088C51.0354 75.7721 57.016 84.7245 65.6812 88.9363L53.1723 128.801L100.068 128.801L87.6239 89.1416C96.5219 85.0205 102.702 75.9437 102.702 65.4088C102.702 50.997 91.1362 39.314 76.8688 39.314C62.6014 39.314 51.0354 50.997 51.0354 65.4088Z" fill="url(#paint0_linear_91_348)"/>
</g>
<defs>
<filter id="filter0_i_91_348" x="0" y="7.56274" width="153.805" height="159.785" filterUnits="userSpaceOnUse" color-interpolation-filters="sRGB">
<feFlood flood-opacity="0" result="BackgroundImageFix"/>
<feBlend mode="normal" in="SourceGraphic" in2="BackgroundImageFix" result="shape"/>
<feColorMatrix in="SourceAlpha" type="matrix" values="0 0 0 0 0 0 0 0 0 0 0 0 0 0 0 0 0 0 127 0" result="hardAlpha"/>
<feOffset dy="4"/>
<feGaussianBlur stdDeviation="12"/>
<feComposite in2="hardAlpha" operator="arithmetic" k2="-1" k3="1"/>
<feColorMatrix type="matrix" values="0 0 0 0 0 0 0 0 0 0 0 0 0 0 0 0 0 0 0.15 0"/>
<feBlend mode="normal" in2="shape" result="effect1_innerShadow_91_348"/>
</filter>
<linearGradient id="paint0_linear_91_348" x1="106.277" y1="38.2578" x2="19.379" y2="126.065" gradientUnits="userSpaceOnUse">
<stop stop-color="#E0ADFF"/>
<stop offset="1" stop-color="#EE3636"/>
</linearGradient>
</defs>
</svg>
