<svg width="80" height="24" viewBox="0 0 80 24" fill="none" xmlns="http://www.w3.org/2000/svg">
<rect width="80" height="24" rx="8" fill="#423E8E"/>
<path d="M26.7899 7.89355V14.4936H31.6379V15.6696H25.4219V7.89355H26.7899Z" fill="white"/>
<path d="M35.8982 15.8016C35.2342 15.8016 34.6382 15.6816 34.1102 15.4416C33.5822 15.2016 33.1662 14.8496 32.8622 14.3856C32.5582 13.9216 32.4062 13.3576 32.4062 12.6936C32.4062 12.0376 32.5582 11.4776 32.8622 11.0136C33.1662 10.5416 33.5822 10.1816 34.1102 9.93355C34.6382 9.68555 35.2342 9.56155 35.8982 9.56155C36.5622 9.56155 37.1542 9.68555 37.6742 9.93355C38.1942 10.1816 38.6022 10.5416 38.8982 11.0136C39.2022 11.4776 39.3542 12.0376 39.3542 12.6936C39.3542 13.3576 39.2022 13.9216 38.8982 14.3856C38.6022 14.8496 38.1942 15.2016 37.6742 15.4416C37.1542 15.6816 36.5622 15.8016 35.8982 15.8016ZM35.8982 14.7096C36.2822 14.7096 36.6342 14.6336 36.9542 14.4816C37.2742 14.3296 37.5262 14.1016 37.7102 13.7976C37.9022 13.4936 37.9982 13.1256 37.9982 12.6936C37.9982 12.2616 37.9022 11.8936 37.7102 11.5896C37.5262 11.2856 37.2742 11.0536 36.9542 10.8936C36.6422 10.7256 36.2902 10.6416 35.8982 10.6416C35.5062 10.6416 35.1502 10.7216 34.8302 10.8816C34.5102 11.0416 34.2502 11.2736 34.0502 11.5776C33.8582 11.8816 33.7622 12.2536 33.7622 12.6936C33.7622 13.1256 33.8582 13.4936 34.0502 13.7976C34.2422 14.1016 34.4982 14.3296 34.8182 14.4816C35.1462 14.6336 35.5062 14.7096 35.8982 14.7096Z" fill="white"/>
<path d="M43.2103 14.7456C42.6503 14.7456 42.1423 14.6456 41.6863 14.4456C41.2383 14.2456 40.8823 13.9536 40.6183 13.5696C40.3623 13.1856 40.2343 12.7256 40.2343 12.1896C40.2343 11.6536 40.3583 11.1896 40.6063 10.7976C40.8623 10.4056 41.2143 10.1016 41.6623 9.88555C42.1183 9.66955 42.6343 9.56155 43.2103 9.56155C43.3783 9.56155 43.5383 9.57355 43.6903 9.59755C43.8503 9.62155 44.0023 9.65355 44.1463 9.69355L46.9423 9.70555V10.8216C46.5583 10.8296 46.1703 10.7776 45.7783 10.6656C45.3943 10.5456 45.0543 10.4216 44.7583 10.2936L44.7223 10.2216C44.9943 10.3576 45.2383 10.5256 45.4543 10.7256C45.6783 10.9176 45.8543 11.1376 45.9823 11.3856C46.1103 11.6336 46.1743 11.9136 46.1743 12.2256C46.1743 12.7536 46.0463 13.2056 45.7903 13.5816C45.5423 13.9576 45.1943 14.2456 44.7463 14.4456C44.3063 14.6456 43.7943 14.7456 43.2103 14.7456ZM45.1303 18.1056V17.8296C45.1303 17.4376 45.0143 17.1616 44.7823 17.0016C44.5503 16.8416 44.2263 16.7616 43.8103 16.7616H42.1903C41.8703 16.7616 41.5943 16.7336 41.3623 16.6776C41.1383 16.6296 40.9583 16.5536 40.8223 16.4496C40.6863 16.3536 40.5863 16.2376 40.5223 16.1016C40.4583 15.9736 40.4263 15.8296 40.4263 15.6696C40.4263 15.3496 40.5223 15.1096 40.7143 14.9496C40.9143 14.7896 41.1743 14.6856 41.4943 14.6376C41.8223 14.5896 42.1663 14.5816 42.5263 14.6136L43.2103 14.7456C42.7383 14.7616 42.3783 14.8056 42.1303 14.8776C41.8903 14.9416 41.7703 15.0736 41.7703 15.2736C41.7703 15.3936 41.8183 15.4896 41.9143 15.5616C42.0103 15.6336 42.1463 15.6696 42.3223 15.6696H44.0263C44.5143 15.6696 44.9423 15.7256 45.3103 15.8376C45.6783 15.9576 45.9623 16.1536 46.1623 16.4256C46.3703 16.7056 46.4743 17.0856 46.4743 17.5656V18.1056H45.1303ZM43.2103 13.7016C43.5303 13.7016 43.8143 13.6416 44.0623 13.5216C44.3103 13.4016 44.5063 13.2296 44.6503 13.0056C44.7943 12.7816 44.8663 12.5096 44.8663 12.1896C44.8663 11.8696 44.7943 11.5936 44.6503 11.3616C44.5063 11.1296 44.3103 10.9536 44.0623 10.8336C43.8143 10.7136 43.5303 10.6536 43.2103 10.6536C42.8983 10.6536 42.6143 10.7136 42.3583 10.8336C42.1103 10.9536 41.9143 11.1296 41.7703 11.3616C41.6263 11.5856 41.5543 11.8616 41.5543 12.1896C41.5543 12.5096 41.6263 12.7816 41.7703 13.0056C41.9143 13.2296 42.1103 13.4016 42.3583 13.5216C42.6063 13.6416 42.8903 13.7016 43.2103 13.7016Z" fill="white"/>
<path d="M51.1208 15.8016C50.4568 15.8016 49.8608 15.6816 49.3328 15.4416C48.8048 15.2016 48.3888 14.8496 48.0848 14.3856C47.7808 13.9216 47.6288 13.3576 47.6288 12.6936C47.6288 12.0376 47.7808 11.4776 48.0848 11.0136C48.3888 10.5416 48.8048 10.1816 49.3328 9.93355C49.8608 9.68555 50.4568 9.56155 51.1208 9.56155C51.7848 9.56155 52.3768 9.68555 52.8968 9.93355C53.4168 10.1816 53.8248 10.5416 54.1208 11.0136C54.4248 11.4776 54.5768 12.0376 54.5768 12.6936C54.5768 13.3576 54.4248 13.9216 54.1208 14.3856C53.8248 14.8496 53.4168 15.2016 52.8968 15.4416C52.3768 15.6816 51.7848 15.8016 51.1208 15.8016ZM51.1208 14.7096C51.5048 14.7096 51.8568 14.6336 52.1768 14.4816C52.4968 14.3296 52.7488 14.1016 52.9328 13.7976C53.1248 13.4936 53.2208 13.1256 53.2208 12.6936C53.2208 12.2616 53.1248 11.8936 52.9328 11.5896C52.7488 11.2856 52.4968 11.0536 52.1768 10.8936C51.8648 10.7256 51.5128 10.6416 51.1208 10.6416C50.7288 10.6416 50.3728 10.7216 50.0528 10.8816C49.7328 11.0416 49.4728 11.2736 49.2728 11.5776C49.0808 11.8816 48.9848 12.2536 48.9848 12.6936C48.9848 13.1256 49.0808 13.4936 49.2728 13.7976C49.4648 14.1016 49.7208 14.3296 50.0408 14.4816C50.3688 14.6336 50.7288 14.7096 51.1208 14.7096Z" fill="white"/>
</svg>
